# xmcd
#
# Track frame offsets:
#	150
#	18407
#	44777
#	71148
#	87313
#	112550
#
# Disc length: 1831 seconds
#
# Revision: 1
# Processed by: cddbd v1.5.2PL0 Copyright (c) Steve Scherf et al.
# Submitted via: audiograbber 1.83.01
#
DISCID=49072506
DTITLE=People Of 'K' Feat. Crystal - 3am Eternal [CDMr)
DYEAR=2014
DGENRE=Dance
TTITLE0=3am Eternal (Almighty Radio Edit)
TTITLE1=3am Eternal (Almighty Club Mix)
TTITLE2=3am Eternal (Almighty Dub)
TTITLE3=3am Eternal (Almighty Boys Radio Edit)
TTITLE4=3am Eternal (Almighty Boys Club Mix)
TTITLE5=3am Eternal (Almighty Boys Dub)
EXTD=TR.
EXTT0=
EXTT1=
EXTT2=
EXTT3=
EXTT4=
EXTT5=
PLAYORDER=
